<svg xmlns="http://www.w3.org/2000/svg" width="127.332" height="30" viewBox="0 0 127.332 30"><g transform="translate(345.387 151.643)"><path d="M-229.706-126.959v.97h-1.352v1.117h1.352v.7h.8v-.7h2.416c.987,0,1.3-.338,1.3-1.351,0-.2-.026-.554-.043-.736h-.753l.009.468c0,.355-.121.5-.468.5h-2.46v-.97Z" transform="translate(-32.023 -6.917)" fill="none"/><rect width="4.469" height="1.117" transform="translate(-261.731 -130.599)" fill="none"/><path d="M-229.22-119.734v1.065h.762a1.436,1.436,0,0,0-.849,1.429,1.958,1.958,0,0,0,2.192,1.966,1.958,1.958,0,0,0,2.191-1.966,1.425,1.425,0,0,0-.762-1.377h.883c.745,0,1.1.381,1.1,1.039a.908.908,0,0,1-.866,1.013v1.048c.961,0,1.6-.667,1.6-2.009a1.948,1.948,0,0,0-2.148-2.208Zm2.1,3.343c-.927,0-1.394-.45-1.394-1.108s.467-1.117,1.394-1.117,1.394.451,1.394,1.117S-226.189-116.391-227.115-116.391Z" transform="translate(-32.515 -8.955)" fill="none"/><path d="M-226.449-137.1h-2.737v1.117h2.953c1.082,0,1.6-.5,1.6-1.524a1.407,1.407,0,0,0-.814-1.377h.727v-1.065h-4.469v1.117h2.494c.727,0,1.152.381,1.152.97C-225.54-137.321-225.843-137.1-226.449-137.1Z" transform="translate(-32.545 -3.277)" fill="none"/><path d="M-278.256-144.585c-.045,0-.09,0-.135,0A2,2,0,0,0-280.4-142.6h3.967A1.905,1.905,0,0,0-278.256-144.585Z" transform="translate(-18.199 -1.977)" fill="none"/><path d="M-323.7-144.519c-1.278,0-2.062,1.08-2.062,2.883,0,1.828.776,2.881,2.062,2.881s2.055-1.053,2.055-2.881C-321.64-143.448-322.417-144.519-323.7-144.519Z" transform="translate(-5.454 -1.998)" fill="none"/><path d="M-257.511-114.8c0,.676.578,1.1,1.461,1.1a1.843,1.843,0,0,0,2.023-1.643c0-.02,0-.039.006-.06h0v-.679l-1.93.134C-256.969-115.874-257.511-115.473-257.511-114.8Z" transform="translate(-24.61 -9.972)" fill="none"/><path d="M-275.079-120.827c-1.28,0-2.065,1.077-2.065,2.881,0,1.828.778,2.881,2.065,2.881s2.056-1.054,2.056-2.881S-273.8-120.827-275.079-120.827Z" transform="translate(-19.112 -8.651)" fill="none"/><path d="M-231.137-121.243a.58.58,0,0,0,.581-.649.573.573,0,0,0-.581-.641.572.572,0,0,0-.58.641A.579.579,0,0,0-231.137-121.243Z" transform="translate(-31.829 -8.153)" fill="none"/><path d="M-225.371-143.866h-.763a1.427,1.427,0,0,0,.849-1.429c0-1.2-.857-1.966-2.321-1.966s-2.322.762-2.322,1.966a1.423,1.423,0,0,0,.763,1.377h-2.373v1.118h6.166Zm-2.234-.052c-1.023,0-1.472-.45-1.472-1.108s.45-1.117,1.472-1.117,1.472.451,1.472,1.117S-226.583-143.918-227.6-143.918Z" transform="translate(-31.89 -1.218)" fill="none"/><path d="M-225.371-130.48h-2.494c-.727,0-1.152-.381-1.152-.97,0-.546.3-.763.909-.763h2.737v-1.117h-2.954c-1.082,0-1.6.511-1.6,1.533a1.384,1.384,0,0,0,.728,1.316h-2.338v1.117h6.166Z" transform="translate(-31.89 -5.133)" fill="none"/><path d="M-183.415-142.125l1.956,1.611,2.661-2.171-9.856-8.16,1.365,5.527,1.968,1.624-6.81,7.739-6.81-7.739,1.97-1.624,1.365-5.527-9.859,8.16,2.663,2.171,1.956-1.611,6.9,8.237-9.288,10.551,2.479,1.916,8.625-10.3,8.625,10.3,2.479-1.916-9.285-10.551Z" transform="translate(-39.256 -0.222)" fill="#fff"/><path d="M-337.583-142.992h-.067l-5.633-7.851h-2.1v12.053h2.415v-7.894h.077l5.637,7.894h2.089v-12.053h-2.413Z" transform="translate(0 -0.222)" fill="#fff"/><path d="M-320.111-142.356c0-2.947-1.77-4.752-4.536-4.752s-4.535,1.813-4.535,4.752c0,2.973,1.744,4.761,4.535,4.761S-320.111-139.374-320.111-142.356Zm-4.536,2.881c-1.286,0-2.062-1.053-2.062-2.881,0-1.8.784-2.883,2.062-2.883s2.055,1.071,2.055,2.883C-322.592-140.527-323.361-139.474-324.647-139.474Z" transform="translate(-4.503 -1.26)" fill="#fff"/><path d="M-312.378-142.882a1.807,1.807,0,0,1-.008-.348,1.844,1.844,0,0,1,1.971-1.706,2.64,2.64,0,0,1,.9.144v-2.154a2.306,2.306,0,0,0-.709-.092,2.167,2.167,0,0,0-2.189,1.755h-.049v-1.646h-2.357v9.194h2.439Z" transform="translate(-8.562 -1.279)" fill="#fff"/><path d="M-305.614-140.957c0,1.794.836,2.512,2.967,2.512a6.292,6.292,0,0,0,1.176-.1v-1.805a4.1,4.1,0,0,1-.609.043c-.742,0-1.095-.344-1.095-1.053v-4.469h1.7v-1.846h-1.7v-2.047h-2.439v2.047h-1.244v1.845h1.244Z" transform="translate(-10.792 -0.534)" fill="#fff"/><path d="M-294.936-144.232a1.893,1.893,0,0,1-.012-.271,1.869,1.869,0,0,1,1.925-1.81c1.161,0,1.762.726,1.762,1.93v5.371h2.438v-5.882c0-2.13-1.176-3.45-3.215-3.45a2.913,2.913,0,0,0-2.889,1.781h-.05v-5.08h-2.4v12.631h2.439Z" transform="translate(-13.45)" fill="#fff"/><path d="M-275.092-140.56h-2.252a1.848,1.848,0,0,1-1.878,1.145,2.06,2.06,0,0,1-.24,0,2.068,2.068,0,0,1-1.906-2.218v-.149h6.348v-.752c0-2.8-1.685-4.57-4.333-4.57-2.7,0-4.419,1.871-4.419,4.794s1.713,4.719,4.511,4.719C-277.021-137.595-275.358-138.781-275.092-140.56Zm-4.235-4.726c.045,0,.09,0,.135,0a1.905,1.905,0,0,1,1.82,1.987h-3.967A2,2,0,0,1-279.327-145.286Z" transform="translate(-17.262 -1.26)" fill="#fff"/><path d="M-267.427-145.284h-.05v-1.646h-2.356v9.194h2.44v-5.146a1.816,1.816,0,0,1-.008-.349,1.843,1.843,0,0,1,1.97-1.706,2.647,2.647,0,0,1,.9.144v-2.154a2.314,2.314,0,0,0-.71-.092A2.167,2.167,0,0,0-267.427-145.284Z" transform="translate(-21.162 -1.279)" fill="#fff"/><path d="M-255.772-147.077a2.888,2.888,0,0,0-2.873,1.781h-.051v-1.646h-2.355v9.2h2.437v-5.246a1.967,1.967,0,0,1-.011-.253,1.844,1.844,0,0,1,1.883-1.8c1.152,0,1.722.693,1.722,1.913v5.389h2.439v-5.9C-252.581-145.789-253.734-147.077-255.772-147.077Z" transform="translate(-23.626 -1.267)" fill="#fff"/><path d="M-316.366-122.182l-1.462-.309c-1.386-.316-1.971-.734-1.971-1.478,0-.894.835-1.488,2.081-1.488,1.262,0,2.155.619,2.239,1.639h2.364c-.042-2.182-1.8-3.627-4.609-3.627-2.691,0-4.613,1.471-4.613,3.693,0,1.761,1.095,2.89,3.316,3.367l1.571.342c1.453.326,2.031.76,2.031,1.545,0,.885-.93,1.529-2.264,1.529s-2.372-.652-2.489-1.647h-2.436c.077,2.265,1.922,3.644,4.82,3.644,2.991,0,4.888-1.479,4.888-3.818C-312.9-120.628-313.951-121.664-316.366-122.182Z" transform="translate(-6.329 -6.812)" fill="#fff"/><path d="M-304.6-115.872c-1.261,0-2.056-1.036-2.056-2.832,0-1.762.8-2.832,2.047-2.832a1.786,1.786,0,0,1,1.862,1.631h2.271c-.116-2.047-1.7-3.551-4.168-3.551-2.731,0-4.485,1.839-4.485,4.753,0,2.955,1.753,4.76,4.5,4.76,2.413,0,4.016-1.36,4.16-3.5h-2.271A1.733,1.733,0,0,1-304.6-115.872Z" transform="translate(-10.158 -7.921)" fill="#fff"/><path d="M-288.08-117.959a1.814,1.814,0,0,1,.014.251,1.836,1.836,0,0,1-1.86,1.813c-1.127,0-1.746-.668-1.746-1.914V-123.2h-2.438v5.9a3.14,3.14,0,0,0,3.3,3.433,2.736,2.736,0,0,0,2.764-1.8H-288V-114h2.356V-123.2h-2.44Z" transform="translate(-14.365 -7.993)" fill="#fff"/><path d="M-276.031-123.419c-2.764,0-4.536,1.813-4.536,4.753,0,2.974,1.747,4.76,4.536,4.76s4.536-1.779,4.536-4.76C-271.494-121.614-273.266-123.419-276.031-123.419Zm0,7.634c-1.287,0-2.065-1.054-2.065-2.881,0-1.8.785-2.881,2.065-2.881s2.056,1.068,2.056,2.881S-274.744-115.785-276.031-115.785Z" transform="translate(-18.16 -7.931)" fill="#fff"/><rect width="2.439" height="12.63" transform="translate(-288.309 -134.624)" fill="#fff"/><path d="M-256.468-123.425c-2.3,0-3.884,1.212-3.95,2.966h2.229a1.5,1.5,0,0,1,1.62-1.137c1,0,1.612.486,1.612,1.373v.609l-2.3.144c-2.347.142-3.623,1.085-3.623,2.756a2.825,2.825,0,0,0,3.1,2.753,3.153,3.153,0,0,0,2.817-1.529h.05v1.42h2.356v-6.307C-252.558-122.213-254.1-123.425-256.468-123.425Zm1.512,5.986h0c0,.021,0,.04-.006.06a1.842,1.842,0,0,1-2.023,1.643c-.883,0-1.461-.428-1.461-1.1s.542-1.076,1.561-1.144l1.93-.134Z" transform="translate(-23.675 -7.93)" fill="#fff"/><path d="M-236.2-121.422h13.811v-29.424H-236.2Zm11.318-4.823c0,1.338-.641,2-1.6,2v-1.045a.906.906,0,0,0,.866-1.01c0-.657-.355-1.036-1.1-1.036h-.883a1.42,1.42,0,0,1,.762,1.373,1.955,1.955,0,0,1-2.191,1.96,1.956,1.956,0,0,1-2.192-1.96,1.431,1.431,0,0,1,.849-1.425h-.762v-1.062h4.1A1.945,1.945,0,0,1-224.882-126.245Zm-3-6.436c.347,0,.468-.147.468-.5l-.009-.467h.753c.017.181.043.535.043.734,0,1.01-.312,1.347-1.3,1.347h-2.416v.7h-.8v-.7h-1.352v-1.114h1.352v-.967h.8v.967Zm-.762-9.209h-2.494V-143h4.469v1.062h-.727a1.4,1.4,0,0,1,.814,1.373c0,1.019-.52,1.52-1.6,1.52h-2.953v-1.114h2.737c.606,0,.909-.216.909-.76C-227.489-141.51-227.914-141.89-228.641-141.89Zm1.974,11.515v1.115h-4.469v-1.115Zm-6.166-14.557h2.373a1.418,1.418,0,0,1-.763-1.373c0-1.2.858-1.96,2.322-1.96s2.321.76,2.321,1.96a1.422,1.422,0,0,1-.849,1.425h.763v1.063h-6.166Zm0,9.538h2.338a1.38,1.38,0,0,1-.728-1.312c0-1.019.52-1.528,1.6-1.528h2.954v1.114H-229.4c-.606,0-.909.216-.909.76,0,.587.425.967,1.152.967h2.494v1.114h-6.166Zm.45,4.932a.572.572,0,0,1,.581.639.579.579,0,0,1-.581.647.578.578,0,0,1-.58-.647A.571.571,0,0,1-232.383-130.462Z" transform="translate(-30.6 -0.221)" fill="#fff"/><path d="M-226.659-145.714c-1.023,0-1.472.451-1.472,1.117s.45,1.108,1.472,1.108,1.472-.45,1.472-1.108S-225.637-145.714-226.659-145.714Z" transform="translate(-32.837 -1.647)" fill="#fff"/><path d="M-226.809-118.187c-.927,0-1.394.451-1.394,1.117s.467,1.108,1.394,1.108,1.394-.45,1.394-1.108S-225.882-118.187-226.809-118.187Z" transform="translate(-32.816 -9.385)" fill="#fff"/></g></svg>