<?xml version="1.0" encoding="utf-8"?>
<!-- Generator: Adobe Illustrator 16.0.0, SVG Export Plug-In . SVG Version: 6.00 Build 0)  -->
<!DOCTYPE svg PUBLIC "-//W3C//DTD SVG 1.1//EN" "http://www.w3.org/Graphics/SVG/1.1/DTD/svg11.dtd">
<svg version="1.1" id="Layer_1" xmlns="http://www.w3.org/2000/svg" xmlns:xlink="http://www.w3.org/1999/xlink" x="0px" y="0px"
	 width="127.332px" height="30px" viewBox="0 0 127.332 30" enable-background="new 0 0 127.332 30" xml:space="preserve">
<g transform="translate(345.387 151.643)">
	<path fill="none" d="M-261.729-134.114v0.969h-1.352v1.117h1.352v0.701h0.8v-0.701h2.416c0.987,0,1.3-0.338,1.3-1.352
		c0-0.199-0.025-0.553-0.043-0.734h-0.753l0.009,0.467c0,0.355-0.121,0.5-0.468,0.5h-2.46v-0.969L-261.729-134.114z"/>
	<rect x="-261.731" y="-130.838" fill="none" width="4.469" height="1.117"/>
	<path fill="none" d="M-261.735-128.928v1.066h0.762c-0.559,0.246-0.898,0.82-0.85,1.428c-0.012,1.082,0.855,1.969,1.937,1.98
		c0.085,0,0.171-0.004,0.256-0.014c1.073,0.129,2.048-0.637,2.177-1.711c0.011-0.086,0.016-0.17,0.014-0.256
		c0.046-0.57-0.254-1.111-0.762-1.377h0.883c0.746,0,1.101,0.381,1.101,1.039c0.059,0.498-0.298,0.949-0.796,1.008
		c-0.023,0.002-0.047,0.004-0.07,0.006v1.047c0.961,0,1.6-0.666,1.6-2.008c0.15-1.066-0.591-2.051-1.656-2.201
		c-0.162-0.023-0.328-0.025-0.491-0.008H-261.735z M-259.635-125.584c-0.927,0-1.395-0.449-1.395-1.107s0.468-1.117,1.395-1.117
		s1.395,0.451,1.395,1.117s-0.463,1.107-1.39,1.107H-259.635z"/>
	<path fill="none" d="M-258.994-140.616h-2.736v1.117h2.953c1.082,0,1.6-0.5,1.6-1.523c0.041-0.584-0.283-1.133-0.814-1.377h0.728
		v-1.065h-4.47v1.117h2.494c0.728,0,1.152,0.381,1.152,0.97C-258.085-140.837-258.388-140.616-258.994-140.616z"/>
	<path fill="none" d="M-296.455-146.801c-0.045,0-0.09,0-0.135,0c-1.102-0.005-2,0.883-2.009,1.985h3.967
		c0.045-1.052-0.771-1.94-1.821-1.985C-296.454-146.801-296.454-146.801-296.455-146.801z"/>
	<path fill="none" d="M-329.154-146.756c-1.278,0-2.062,1.08-2.062,2.883c0,1.828,0.776,2.882,2.062,2.882s2.055-1.054,2.055-2.882
		C-327.094-145.685-327.871-146.756-329.154-146.756z"/>
	<path fill="none" d="M-282.121-125.01c0,0.676,0.578,1.1,1.46,1.1c1.013,0.105,1.918-0.631,2.023-1.643c0-0.02,0-0.039,0.006-0.061
		l0,0v-0.68l-1.93,0.135C-281.579-126.084-282.121-125.684-282.121-125.01z"/>
	<path fill="none" d="M-294.191-129.717c-1.28,0-2.065,1.078-2.065,2.881c0,1.828,0.778,2.881,2.065,2.881
		c1.287,0,2.056-1.053,2.056-2.881C-292.135-128.663-292.912-129.717-294.191-129.717z"/>
	<path fill="none" d="M-262.966-129.635c0.32,0.004,0.583-0.254,0.585-0.574c0-0.025-0.001-0.049-0.004-0.074
		c0.037-0.314-0.187-0.6-0.501-0.637c-0.026-0.004-0.054-0.004-0.08-0.004c-0.315-0.008-0.577,0.244-0.584,0.559
		c-0.001,0.027,0.001,0.055,0.004,0.082c-0.038,0.318,0.188,0.605,0.505,0.645C-263.016-129.635-262.99-129.635-262.966-129.635z"/>
	<path fill="none" d="M-257.261-145.323h-0.763c0.56-0.245,0.9-0.819,0.849-1.429c0-1.2-0.856-1.966-2.321-1.966
		c-1.464,0-2.322,0.762-2.322,1.966c-0.045,0.571,0.256,1.113,0.764,1.377h-2.373v1.118h6.166L-257.261-145.323z M-259.494-145.375
		c-1.023,0-1.473-0.45-1.473-1.108c0-0.657,0.45-1.116,1.473-1.116c1.021,0,1.471,0.45,1.471,1.116s-0.449,1.108-1.467,1.108
		H-259.494z"/>
	<path fill="none" d="M-257.261-135.852h-2.494c-0.728,0-1.151-0.381-1.151-0.969c0-0.547,0.299-0.764,0.908-0.764h2.737v-1.117
		h-2.954c-1.082,0-1.6,0.512-1.6,1.533c-0.038,0.544,0.247,1.059,0.728,1.317h-2.338v1.117h6.166L-257.261-135.852z"/>
	<path fill="#FFFFFF" d="M-337.583-143.452h-0.067l-5.633-7.852h-2.1v12.053h2.415v-7.895h0.077l5.637,7.895h2.089v-12.053h-2.413
		L-337.583-143.452z"/>
	<path fill="#FFFFFF" d="M-324.614-143.854c0-2.947-1.77-4.752-4.536-4.752s-4.535,1.813-4.535,4.752
		c0,2.973,1.744,4.761,4.535,4.761S-324.614-140.873-324.614-143.854z M-329.15-140.974c-1.286,0-2.062-1.053-2.062-2.881
		c0-1.801,0.784-2.883,2.062-2.883c1.278,0,2.055,1.07,2.055,2.883C-327.095-142.026-327.864-140.973-329.15-140.974
		L-329.15-140.974z"/>
	<path fill="#FFFFFF" d="M-320.94-144.399c-0.014-0.115-0.016-0.232-0.008-0.349c0.074-1.015,0.956-1.778,1.971-1.706
		c0.306-0.004,0.61,0.045,0.9,0.145v-2.154c-0.23-0.067-0.469-0.098-0.709-0.092c-1.061-0.03-1.988,0.713-2.189,1.755h-0.049v-1.646
		h-2.357v9.193h2.439L-320.94-144.399z"/>
	<path fill="#FFFFFF" d="M-316.406-141.729c0,1.794,0.836,2.512,2.967,2.512c0.395,0.004,0.788-0.029,1.176-0.1v-1.806
		c-0.202,0.03-0.405,0.044-0.609,0.043c-0.742,0-1.095-0.344-1.095-1.053v-4.469h1.7v-1.847h-1.7v-2.047h-2.439v2.047h-1.244v1.846
		h1.244V-141.729z"/>
	<path fill="#FFFFFF" d="M-308.386-144.471c-0.011-0.09-0.015-0.181-0.012-0.271c0.032-1.031,0.894-1.842,1.925-1.811
		c1.161,0,1.762,0.727,1.762,1.93v5.371h2.438v-5.882c0-2.13-1.176-3.45-3.215-3.45c-1.245-0.086-2.407,0.63-2.889,1.781h-0.05
		v-5.08h-2.4v12.631h2.439L-308.386-144.471z"/>
	<path fill="#FFFFFF" d="M-292.354-142.059h-2.252c-0.306,0.753-1.068,1.218-1.878,1.145c-0.08,0.005-0.16,0.005-0.24,0
		c-1.139-0.086-1.992-1.079-1.906-2.218v-0.148h6.348v-0.752c0-2.801-1.685-4.57-4.333-4.57c-2.7,0-4.419,1.871-4.419,4.794
		s1.713,4.719,4.511,4.719C-294.283-139.094-292.62-140.28-292.354-142.059z M-296.589-146.784c0.045,0,0.09,0,0.135,0
		c1.051,0.045,1.866,0.935,1.82,1.986l0,0h-3.967C-298.594-145.901-297.693-146.792-296.589-146.784z"/>
	<path fill="#FFFFFF" d="M-288.589-146.802h-0.05v-1.646h-2.356v9.194h2.44v-5.146c-0.014-0.116-0.017-0.232-0.008-0.35
		c0.073-1.015,0.955-1.778,1.97-1.706c0.306-0.004,0.611,0.044,0.9,0.145v-2.154c-0.23-0.067-0.47-0.099-0.71-0.092
		C-287.463-148.585-288.388-147.843-288.589-146.802z"/>
	<path fill="#FFFFFF" d="M-279.399-148.583c-1.24-0.087-2.398,0.631-2.872,1.781h-0.051v-1.646h-2.355v9.2h2.437v-5.245
		c-0.009-0.085-0.013-0.169-0.011-0.254c0.024-1.017,0.866-1.822,1.883-1.8c1.151,0,1.722,0.692,1.722,1.913v5.389h2.438v-5.9
		C-276.207-147.295-277.36-148.583-279.399-148.583z"/>
	<path fill="#FFFFFF" d="M-322.695-129.233l-1.462-0.309c-1.386-0.316-1.971-0.734-1.971-1.479c0-0.895,0.835-1.488,2.081-1.488
		c1.262,0,2.155,0.619,2.239,1.641h2.364c-0.042-2.184-1.8-3.629-4.609-3.629c-2.691,0-4.613,1.473-4.613,3.693
		c0,1.762,1.095,2.891,3.316,3.367l1.571,0.342c1.453,0.326,2.031,0.76,2.031,1.545c0,0.885-0.93,1.529-2.264,1.529
		s-2.372-0.652-2.489-1.646h-2.436c0.077,2.266,1.922,3.645,4.82,3.645c2.991,0,4.888-1.48,4.888-3.818
		C-319.229-127.678-320.28-128.715-322.695-129.233z"/>
	<path fill="#FFFFFF" d="M-314.758-124.032c-1.261,0-2.056-1.035-2.056-2.832c0-1.762,0.8-2.832,2.047-2.832
		c0.958-0.045,1.78,0.676,1.862,1.631h2.271c-0.116-2.047-1.7-3.551-4.168-3.551c-2.731,0-4.485,1.84-4.485,4.754
		c0,2.955,1.753,4.76,4.5,4.76c2.413,0,4.016-1.361,4.16-3.5h-2.271C-312.984-124.659-313.813-123.957-314.758-124.032z"/>
	<path fill="#FFFFFF" d="M-302.445-126.19c0.011,0.082,0.015,0.166,0.014,0.25c-0.013,1.014-0.845,1.826-1.859,1.813
		c0,0,0,0-0.001,0c-1.127,0-1.746-0.668-1.746-1.914v-5.391h-2.438v5.9c-0.165,1.727,1.102,3.26,2.828,3.424
		c0.157,0.016,0.314,0.018,0.472,0.01c1.22,0.084,2.349-0.65,2.764-1.801h0.046v1.668h2.356v-9.201h-2.44L-302.445-126.19z"/>
	<path fill="#FFFFFF" d="M-294.191-131.588c-2.764,0-4.536,1.813-4.536,4.752c0,2.975,1.747,4.762,4.536,4.762
		c2.789,0,4.536-1.779,4.536-4.762C-289.654-129.784-291.426-131.588-294.191-131.588z M-294.191-123.956
		c-1.287,0-2.065-1.053-2.065-2.881c0-1.799,0.785-2.881,2.065-2.881c1.28,0,2.056,1.068,2.056,2.881
		C-292.135-125.022-292.904-123.956-294.191-123.956z"/>
	<rect x="-288.309" y="-134.862" fill="#FFFFFF" width="2.439" height="12.629"/>
	<path fill="#FFFFFF" d="M-280.143-131.594c-2.3,0-3.884,1.213-3.95,2.967h2.229c0.178-0.732,0.872-1.219,1.62-1.137
		c1,0,1.612,0.486,1.612,1.373v0.609l-2.3,0.143c-2.347,0.143-3.623,1.086-3.623,2.756c0.032,1.561,1.323,2.799,2.883,2.766
		c0.073,0,0.145-0.004,0.217-0.012c1.147,0.041,2.226-0.545,2.817-1.529h0.05v1.42h2.356v-6.307
		C-276.233-130.381-277.776-131.594-280.143-131.594z M-278.631-125.608L-278.631-125.608c0,0.021,0,0.041-0.006,0.061
		c-0.104,1.012-1.01,1.748-2.021,1.643c0,0-0.001,0-0.002,0c-0.883,0-1.46-0.428-1.46-1.1s0.542-1.076,1.561-1.145l1.93-0.133
		L-278.631-125.608z"/>
	<path fill="#FFFFFF" d="M-266.8-121.881h13.812v-29.424H-266.8V-121.881z M-255.483-126.706c0,1.34-0.641,2-1.6,2v-1.045
		c0.5-0.018,0.891-0.438,0.871-0.938c0-0.025-0.002-0.049-0.005-0.072c0-0.656-0.354-1.035-1.101-1.035h-0.883
		c0.508,0.262,0.808,0.803,0.763,1.373c0.011,1.08-0.856,1.963-1.937,1.975c-0.084,0-0.17-0.004-0.255-0.016
		c-1.072,0.131-2.048-0.633-2.178-1.705c-0.011-0.084-0.015-0.17-0.015-0.254c-0.049-0.607,0.292-1.18,0.85-1.426h-0.762v-1.061h4.1
		c1.066-0.125,2.033,0.639,2.157,1.705C-255.456-127.038-255.459-126.87-255.483-126.706z M-258.483-133.141
		c0.348,0,0.469-0.146,0.469-0.5l-0.01-0.467h0.754c0.017,0.182,0.043,0.535,0.043,0.734c0,1.01-0.313,1.348-1.301,1.348h-2.416
		v0.699h-0.799v-0.699h-1.353v-1.115h1.353v-0.967h0.799v0.967H-258.483z M-259.244-142.35h-2.494v-1.11h4.47v1.063h-0.728
		c0.531,0.242,0.855,0.79,0.814,1.373c0,1.019-0.52,1.52-1.6,1.52h-2.953v-1.113h2.736c0.606,0,0.909-0.217,0.909-0.761
		c0-0.591-0.425-0.971-1.151-0.971H-259.244z M-257.27-130.834v1.115h-4.469v-1.115H-257.27z M-263.436-145.392h2.373
		c-0.508-0.262-0.809-0.804-0.764-1.373c0-1.2,0.858-1.96,2.322-1.96c1.465,0,2.321,0.76,2.321,1.96
		c0.052,0.607-0.29,1.182-0.849,1.425h0.763v1.063h-6.166L-263.436-145.392z M-263.436-135.854h2.338
		c-0.48-0.256-0.766-0.769-0.729-1.312c0-1.019,0.521-1.528,1.601-1.528h2.954v1.114H-260c-0.605,0-0.908,0.216-0.908,0.761
		c0,0.586,0.424,0.967,1.151,0.967h2.494v1.113h-6.166L-263.436-135.854z M-262.987-130.922c0.316-0.006,0.578,0.244,0.586,0.561
		c0,0.025-0.001,0.053-0.004,0.08c0.037,0.316-0.189,0.605-0.508,0.643c-0.024,0.002-0.049,0.004-0.074,0.004
		c-0.318,0.004-0.58-0.254-0.584-0.572c0-0.025,0.002-0.051,0.004-0.074c-0.037-0.314,0.186-0.598,0.5-0.637
		c0.027-0.002,0.056-0.004,0.084-0.004H-262.987z"/>
	<path fill="#FFFFFF" d="M-259.496-147.6c-1.022,0-1.472,0.45-1.472,1.116s0.45,1.108,1.472,1.108c1.022,0,1.473-0.45,1.473-1.108
		C-258.024-147.141-258.474-147.6-259.496-147.6z"/>
	<path fill="#FFFFFF" d="M-259.625-127.811c-0.927,0-1.394,0.451-1.394,1.117s0.467,1.107,1.394,1.107
		c0.928,0,1.395-0.449,1.395-1.107S-258.698-127.811-259.625-127.811z"/>
</g>
<g>
	<path fill="none" d="M109.244,4.096c-0.042-0.019-0.083-0.046-0.113-0.081c-0.023-0.025-0.052-0.05-0.076-0.07
		c-0.059-0.051-0.133-0.092-0.204-0.129c-0.066-0.035-0.146-0.059-0.228-0.073c-0.073-0.012-0.155-0.019-0.229-0.012
		c-0.098,0.011-0.201,0.03-0.299,0.064c-0.082,0.027-0.161,0.063-0.238,0.112c-0.203,0.13-0.351,0.312-0.416,0.54
		c-0.02,0.071-0.028,0.151-0.033,0.222c-0.004,0.045-0.002,0.09,0.002,0.13c0.01,0.08,0.042,0.154,0.083,0.219
		c0.04,0.062,0.094,0.116,0.152,0.163c0.063,0.049,0.13,0.089,0.2,0.121c0.075,0.036,0.163,0.065,0.246,0.092
		c0.079,0.028,0.164,0.061,0.247,0.089c0.069,0.023,0.138,0.051,0.198,0.081c0.052,0.026,0.104,0.054,0.146,0.088
		c0.029,0.024,0.059,0.052,0.079,0.085c0.019,0.032,0.034,0.067,0.037,0.104c0.007,0.035,0.003,0.075-0.002,0.114
		c-0.01,0.049-0.027,0.103-0.063,0.143c-0.026,0.032-0.061,0.056-0.095,0.076c-0.041,0.026-0.09,0.048-0.141,0.06
		c-0.057,0.017-0.116,0.028-0.177,0.033c-0.05,0.002-0.103-0.003-0.147-0.021c-0.063-0.02-0.108-0.06-0.146-0.109
		c-0.007-0.012-0.012-0.026-0.009-0.035c0.003-0.004,0.004-0.013,0.004-0.016c0.001-0.027,0.029-0.068,0.029-0.083
		c0-0.008-0.06-0.063-0.069-0.065c-0.007,0-0.646,0.308-0.651,0.319c-0.009,0.012-0.017,0.09-0.012,0.096
		c0,0,0.009,0.002,0.012,0.002c0.05,0,0.119,0.027,0.173,0.054c0.025,0.014,0.05,0.031,0.073,0.055
		c0.047,0.046,0.094,0.086,0.149,0.125c0.077,0.054,0.169,0.098,0.261,0.124c0.111,0.033,0.23,0.037,0.354,0.021
		c0.027-0.006,0.059-0.007,0.085-0.012c0.069-0.011,0.14-0.03,0.205-0.05c0.075-0.024,0.148-0.061,0.224-0.103
		c0.203-0.119,0.347-0.29,0.415-0.51c0.025-0.074,0.037-0.152,0.04-0.226c0.005-0.079-0.003-0.159-0.023-0.231
		c-0.025-0.097-0.075-0.189-0.143-0.265c-0.057-0.066-0.124-0.122-0.2-0.169c-0.076-0.049-0.156-0.085-0.242-0.122
		c-0.086-0.036-0.177-0.067-0.266-0.098c-0.079-0.025-0.159-0.053-0.236-0.083c-0.049-0.019-0.099-0.043-0.146-0.067
		c-0.031-0.019-0.059-0.044-0.085-0.071c-0.023-0.023-0.042-0.054-0.051-0.09c-0.011-0.036-0.006-0.081,0.003-0.121
		c0.018-0.08,0.068-0.151,0.133-0.2c0.044-0.031,0.092-0.057,0.139-0.074c0.057-0.021,0.12-0.037,0.181-0.04
		c0.02-0.001,0.05-0.002,0.072,0.002c0.094,0.014,0.174,0.06,0.231,0.126c0.019,0.021,0.018,0.022,0.012,0.049
		c-0.005,0.027-0.019,0.058-0.024,0.077c0,0.004-0.005,0.01-0.002,0.013c0.006,0.021,0.049,0.059,0.063,0.063
		c0.015,0,0.652-0.277,0.66-0.286c0.007-0.014,0.009-0.062,0.012-0.089c0-0.002,0-0.01,0-0.01c0-0.001-0.009-0.001-0.012-0.005
		C109.354,4.129,109.287,4.118,109.244,4.096z"/>
	<path fill="none" d="M118.792,6.312c-0.005-0.001-0.005,0.001-0.005,0.001c-0.024,0.018-0.053,0.029-0.074,0.035
		c-0.042,0.012-0.088,0.021-0.13,0.023c-0.086,0.007-0.175,0-0.266-0.016c-0.135-0.021-0.273-0.044-0.409-0.065
		c-0.003-0.001-0.003-0.001-0.003-0.001c-0.006-0.001-0.012-0.001-0.013-0.001c-0.001-0.003,0-0.021,0-0.029
		c0-0.593,0-1.186,0-1.778c0-0.047,0.001-0.092,0.005-0.134c0.001-0.055,0.01-0.114,0.021-0.167c0.01-0.04,0.026-0.089,0.045-0.124
		c0.014-0.023,0.03-0.049,0.055-0.064c0,0,0.003-0.002,0.004-0.003c0,0-0.026-0.085-0.04-0.097
		c-0.011-0.007-0.028-0.017-0.053-0.025c-0.129-0.048-0.428-0.089-0.567-0.088c-0.038,0-0.064,0.004-0.073,0.012
		c0,0-0.002,0.012-0.003,0.015c-0.004,0.014-0.018,0.046-0.028,0.058c-0.001,0.004-0.003,0.01-0.003,0.013
		c0.011,0.031,0.059,0.087,0.074,0.131c0.006,0.014,0.012,0.03,0.017,0.045c0.021,0.084,0.032,0.17,0.035,0.252
		c0,0.024,0,0.054,0,0.081c-0.001,0.576,0,1.154,0,1.732c0,0.025,0,0.052,0,0.075c0,0.072-0.01,0.146-0.025,0.215
		c-0.007,0.043-0.02,0.084-0.038,0.123c-0.012,0.023-0.03,0.045-0.044,0.062c-0.004,0.006-0.022,0.019-0.022,0.023
		c-0.002,0.013,0.024,0.082,0.038,0.091c0.172,0.14,1.288,0.312,1.418,0.229c0.015-0.008,0.032-0.111,0.049-0.168
		c0.036-0.125,0.094-0.269,0.108-0.387c0.001-0.003,0.005-0.011,0.004-0.015C118.865,6.358,118.811,6.32,118.792,6.312z"/>
	<path fill="none" d="M114.222,3.584c-0.009-0.022-0.023-0.047-0.027-0.065c0-0.004-0.005-0.012-0.009-0.013
		c-0.002-0.002-0.014-0.002-0.022-0.002c-0.204-0.007-0.411-0.016-0.615-0.019c-0.014,0-0.027-0.002-0.043-0.002
		c-0.003,0-0.01,0-0.014,0.004c-0.012,0.019-0.042,0.072-0.038,0.085c0.003,0.019,0.055,0.085,0.075,0.114
		c0.002,0.004,0.002,0.011,0.005,0.017c0.01,0.057,0.04,0.135,0.047,0.204c0.005,0.054,0.007,0.108,0.007,0.168
		c0,0.446,0,0.896,0,1.346c0,0.027,0.001,0.057,0,0.079c-0.002,0.032-0.004,0.069-0.012,0.103c-0.057,0.229-0.285,0.374-0.524,0.326
		c-0.152-0.03-0.283-0.143-0.335-0.294c-0.018-0.048-0.023-0.095-0.023-0.146c0-0.477,0-0.957,0-1.438
		c0-0.051,0.001-0.108,0.006-0.161c0.007-0.045,0.012-0.092,0.024-0.137c0.011-0.038,0.023-0.082,0.045-0.116
		c0.014-0.023,0.031-0.048,0.051-0.068c0.001-0.001,0.001-0.003,0.003-0.003c-0.012-0.032-0.026-0.076-0.039-0.085
		c-0.008-0.008-0.686,0-0.694,0.005c-0.011,0.009-0.041,0.083-0.04,0.087c0.005,0.022,0.069,0.08,0.076,0.117
		c0,0.003,0,0.004,0,0.004c0.03,0.077,0.043,0.156,0.051,0.233c0.003,0.049,0.003,0.098,0.003,0.148c0,0.47,0,0.936,0,1.404
		c0,0.032,0.003,0.061,0.004,0.089c0.005,0.059,0.014,0.125,0.032,0.188c0.075,0.249,0.229,0.444,0.458,0.57
		c0.124,0.07,0.266,0.106,0.407,0.119c0.046,0.005,0.092,0.005,0.141,0c0.056-0.001,0.111-0.014,0.167-0.027
		c0.291-0.075,0.535-0.281,0.646-0.556c0.032-0.079,0.05-0.155,0.06-0.236c0.003-0.04,0.007-0.079,0.007-0.117
		c0-0.474,0-0.951,0-1.424c0-0.074,0-0.146,0.014-0.216c0.006-0.046,0.019-0.094,0.034-0.139c0.012-0.033,0.029-0.067,0.047-0.091
		c0.009-0.013,0.027-0.027,0.031-0.039c0.003-0.001,0-0.006,0-0.017C114.224,3.584,114.224,3.584,114.222,3.584z"/>
	<path fill="none" d="M111.166,4.357c0.003,0.015,0.059,0.066,0.065,0.067c0.027,0.003,0.655-0.234,0.66-0.24
		c0.001-0.004,0.005-0.084,0-0.095c-0.003-0.003-0.005-0.003-0.009-0.003c-0.05-0.009-0.111-0.055-0.163-0.097
		c-0.031-0.025-0.061-0.057-0.086-0.088c-0.091-0.109-0.206-0.216-0.334-0.283c-0.147-0.076-0.313-0.114-0.482-0.114
		c-0.069,0-0.138,0.003-0.207,0.016c-0.063,0.013-0.127,0.031-0.189,0.058c-0.271,0.109-0.5,0.301-0.646,0.569
		c-0.07,0.126-0.111,0.26-0.131,0.394c-0.007,0.059-0.012,0.115-0.012,0.169c0,0.255,0,0.509,0,0.76c0,0.043,0,0.082,0.005,0.121
		c0.007,0.062,0.019,0.117,0.036,0.176c0.079,0.296,0.294,0.529,0.569,0.651c0.125,0.054,0.268,0.077,0.405,0.086
		c0.054,0,0.109,0,0.169-0.009c0.064-0.008,0.126-0.019,0.188-0.039c0.258-0.076,0.476-0.223,0.623-0.429
		c0.01-0.012,0.018-0.023,0.028-0.036c0.061-0.067,0.135-0.134,0.226-0.172c0,0,0.008-0.004,0.009-0.004
		c0.001-0.003,0-0.09-0.005-0.098c-0.001-0.005-0.013-0.006-0.017-0.006c-0.064-0.04-0.188-0.054-0.284-0.083
		c-0.109-0.032-0.237-0.06-0.337-0.095c-0.009-0.002-0.016-0.007-0.021-0.002c-0.019,0.012-0.062,0.063-0.063,0.072
		c-0.005,0.026,0.003,0.086-0.005,0.129c-0.016,0.063-0.048,0.121-0.106,0.157c-0.09,0.058-0.187,0.089-0.291,0.101
		c-0.079,0.007-0.158-0.002-0.233-0.024c-0.22-0.067-0.384-0.276-0.385-0.53c-0.004-0.256,0-0.521,0-0.78
		c0-0.037,0.004-0.078,0.011-0.116c0.034-0.168,0.123-0.303,0.261-0.404c0.08-0.06,0.17-0.099,0.268-0.115
		c0.054-0.009,0.115-0.011,0.171-0.004c0.071,0.011,0.145,0.033,0.208,0.069c0.037,0.02,0.068,0.055,0.085,0.095
		c0.018,0.04,0.021,0.092,0.021,0.137C111.169,4.328,111.162,4.347,111.166,4.357z"/>
	<path fill="none" d="M112.524,28.572c0.075,0.033,0.156,0.051,0.24,0.051c0.083,0,0.164-0.018,0.24-0.051
		c0.33-0.152,0.66-0.311,0.98-0.473l-0.198-0.236l-0.069-0.084l-0.953-1.141l-0.953,1.141l-0.022,0.029l-0.245,0.291
		c0.139,0.072,0.279,0.139,0.422,0.209C112.148,28.398,112.336,28.484,112.524,28.572z"/>
	<path fill="none" d="M106.209,6.962c-0.012-0.004-0.032-0.039-0.046-0.058c-0.021-0.031-0.031-0.077-0.042-0.116
		c-0.013-0.048-0.019-0.1-0.023-0.151c-0.003-0.043-0.003-0.09-0.003-0.137c0-0.581,0-1.163,0-1.745c0-0.035-0.004-0.071,0-0.104
		c0.001-0.08,0.019-0.17,0.043-0.252c0.002-0.015,0.007-0.033,0.015-0.046c0.017-0.036,0.057-0.086,0.066-0.12
		c0.001-0.001,0.001-0.013,0-0.015c-0.001-0.003-0.005-0.011-0.01-0.014c-0.007-0.01-0.018-0.032-0.022-0.047
		c0-0.002-0.002-0.01-0.006-0.01c-0.123-0.031-0.581,0.064-0.68,0.146c-0.016,0.015-0.028,0.064-0.039,0.099
		c0,0.001,0,0.003,0,0.004c0.023,0.015,0.041,0.04,0.053,0.063c0.022,0.036,0.037,0.082,0.047,0.122
		c0.014,0.054,0.02,0.114,0.024,0.174c0.002,0.04,0.002,0.087,0.002,0.124c0,0.302,0,0.604,0,0.904c0,0.008,0.004,0.021,0,0.024
		c0,0.001-0.007-0.004-0.011-0.005c-0.031-0.035-0.062-0.102-0.092-0.148c-0.16-0.243-0.324-0.488-0.484-0.73
		c-0.031-0.047-0.059-0.096-0.08-0.153c-0.012-0.03-0.022-0.07-0.027-0.11c-0.002-0.02-0.006-0.05,0-0.077
		c0.003-0.021,0.018-0.045,0.022-0.062c0-0.003-0.001-0.008-0.005-0.012c-0.008-0.011-0.018-0.044-0.024-0.055
		c-0.003-0.003-0.006-0.014-0.009-0.014c-0.14-0.03-0.609,0.098-0.755,0.195c-0.004,0.004-0.005,0.014-0.007,0.019
		c-0.01,0.017-0.023,0.046-0.026,0.064c-0.002,0.003-0.004,0.013-0.004,0.018c0,0,0,0.003,0.004,0.003
		c0.014,0.003,0.036,0.035,0.049,0.055c0.021,0.039,0.034,0.079,0.046,0.118c0.013,0.047,0.019,0.103,0.023,0.155
		c0.004,0.041,0.004,0.08,0.004,0.123c0,0.587,0,1.173,0,1.761c0,0.047,0,0.095-0.004,0.14c-0.007,0.08-0.022,0.167-0.05,0.245
		c-0.009,0.026-0.02,0.057-0.035,0.085c-0.011,0.018-0.037,0.043-0.037,0.052c-0.005,0.014,0.026,0.076,0.037,0.08
		c0.078,0.033,0.573-0.092,0.678-0.177c0.015-0.013,0.034-0.068,0.038-0.096c0-0.003,0-0.003-0.003-0.007
		c-0.022-0.014-0.04-0.037-0.055-0.063c-0.019-0.035-0.034-0.075-0.043-0.114c-0.012-0.05-0.018-0.108-0.022-0.167
		c-0.005-0.042-0.005-0.085-0.005-0.128c0-0.431,0-0.856,0-1.283c0-0.007-0.001-0.021,0-0.024c0.001-0.001,0.008,0,0.009,0.003
		c0.004,0.009,0.014,0.02,0.019,0.026c0.263,0.28,0.516,0.774,0.763,1.159c0.023,0.038,0.042,0.076,0.051,0.119
		c0.015,0.092,0,0.188-0.055,0.276c-0.012,0.019-0.031,0.041-0.035,0.057c0,0.002,0,0.01,0.004,0.014
		c0.005,0.014,0.023,0.037,0.026,0.053c0,0.003,0.003,0.011,0.005,0.011c0.022,0.019,0.578-0.067,0.684-0.147
		c0.013-0.009,0.021-0.048,0.028-0.063c0.005-0.005,0.007-0.013,0.01-0.018c0.001-0.004,0.001-0.018,0-0.019
		C106.218,6.962,106.212,6.962,106.209,6.962z"/>
	<path fill="none" d="M106.771,6.418c-0.139,0.026-0.278,0.167-0.28,0.331c-0.001,0.146,0.121,0.253,0.275,0.225
		c0.169-0.029,0.282-0.184,0.282-0.328C107.048,6.491,106.915,6.392,106.771,6.418z"/>
	<path fill="none" d="M116.969,4.595c-0.109-0.415-0.426-0.773-0.813-0.954c-0.07-0.032-0.152-0.057-0.223-0.076
		c-0.035-0.01-0.073-0.019-0.11-0.022c-0.005,0-0.013-0.005-0.017-0.005c-0.042-0.005-0.086-0.009-0.131-0.013
		c-0.003,0-0.012,0.004-0.016,0.004c-0.027-0.004-0.051,0-0.078,0c-0.07,0.004-0.142,0.011-0.208,0.026
		c-0.213,0.045-0.396,0.146-0.547,0.292c-0.165,0.162-0.284,0.365-0.333,0.59c-0.012,0.059-0.02,0.125-0.022,0.187
		c0,0.01-0.005,0.023-0.007,0.029c-0.053,0.118-0.038,0.487,0,0.648c0,0.008,0.005,0.022,0.007,0.028
		c0.004,0.012,0,0.037,0.004,0.051c0.01,0.061,0.018,0.134,0.035,0.201c0.062,0.222,0.174,0.423,0.335,0.59
		c0.229,0.238,0.508,0.38,0.83,0.427c0.068,0.011,0.138,0.014,0.202,0.014c0.063,0.002,0.13-0.009,0.195-0.019
		c0.369-0.064,0.689-0.291,0.842-0.633c0.065-0.15,0.102-0.314,0.102-0.49c0-0.173,0-0.35,0-0.524c0-0.055-0.004-0.107-0.013-0.162
		C116.995,4.72,116.983,4.656,116.969,4.595z M116.501,5.415c0,0.349-0.231,0.62-0.562,0.677c-0.075,0.012-0.146,0.012-0.22,0.003
		c-0.193-0.025-0.358-0.105-0.501-0.248c-0.118-0.12-0.188-0.266-0.225-0.423c-0.01-0.047-0.016-0.1-0.016-0.145
		c0-0.092,0-0.181,0-0.271c0-0.095-0.001-0.192,0-0.285c0-0.139,0.043-0.268,0.119-0.38c0.115-0.172,0.28-0.271,0.483-0.298
		c0.069-0.012,0.145-0.012,0.212,0.002c0.339,0.062,0.619,0.337,0.689,0.646c0.012,0.06,0.019,0.119,0.019,0.182
		C116.501,5.056,116.501,5.235,116.501,5.415z"/>
	<path fill="none" d="M125.673,3.431c-4.006-1.715-8.27-2.603-12.67-2.635h-0.243h-0.244c-4.395,0.032-8.652,0.92-12.661,2.635
		c-0.563,0.242-0.962,0.771-1.039,1.382c-0.134,1.086-0.485,4.977,0.622,9.545c0.763,3.144,2.06,5.957,3.857,8.365
		c2.197,2.936,5.142,5.26,8.751,6.904c0.226,0.104,0.469,0.152,0.719,0.152c0.249,0,0.493-0.049,0.72-0.152
		c2.985-1.361,5.514-3.186,7.542-5.436c0.137,0.936-0.044,1.602-0.044,1.602s1.503-0.877,2.05-3.924
		c0.024-0.133,0.044-0.264,0.064-0.393c1.355-2.115,2.362-4.502,2.996-7.119c1.107-4.568,0.755-8.461,0.62-9.545
		C126.637,4.203,126.238,3.671,125.673,3.431z M125.361,14.18c-0.496,2.048-1.226,3.947-2.179,5.679
		c-0.112-2.119-1.232-2.713-1.942-1.541c-0.898,1.484-1.605,2.049-3.831,0.994c-2.225-1.055-4.119-1.074-4.119-1.074
		c2.432,0.469,3.514,1.934,3.514,1.934c-4.479-1.084-10.892,0.389-10.892,0.389c2.693-1.58,6.265-1.6,6.265-1.6
		c-4.371-0.648-8.16,0.092-8.324,0.125c1.637-0.41,2.775-1.266,2.775-1.266c-2.299,0.211-3.864-0.373-3.864-0.373
		c2.796-1.039,3.851-2.561,3.851-2.561c-2.241,0.965-4.526,0.41-4.526,0.41c1.304-0.44,1.876-0.952,1.876-0.952
		c-1.479,0.16-2.387-0.146-2.387-0.146s2.869-4.452,8.49-5.682c5.622-1.229,11.106,2.36,12.367,5.481
		c-0.062-0.179-2.089-5.928-9.701-6.39c-1.461-0.088-2.804,0.065-4.017,0.369c-0.001,0.001-0.005,0.001-0.005,0.002
		c-0.147,0.037-0.29,0.075-0.431,0.115c-1.396,0.324-3.124,0.259-3.849-0.031c0,0,0.394,0.557,0.967,0.878
		c0,0-1.26,0.719-2.71,0.791c0,0,0.541,0.346,1.243,0.493c-1.712,1.227-2.785,2.518-3.152,2.992
		c-0.031-0.15-0.061-0.299-0.089-0.446c-0.72-3.769-0.438-6.846-0.325-7.767c0.008-0.061,0.049-0.113,0.104-0.138
		c3.815-1.634,7.872-2.478,12.054-2.509h0.238h0.236c4.186,0.031,8.243,0.875,12.06,2.509c0.058,0.024,0.097,0.077,0.104,0.138
		c0.125,1.019,0.456,4.674-0.59,8.987c-0.356,1.473-0.838,2.868-1.44,4.172c0.08,0.152,0.147,0.324,0.205,0.512
		c0.69-1.428,1.235-2.961,1.63-4.589c1.063-4.381,0.726-8.096,0.597-9.131c-0.025-0.203-0.157-0.38-0.346-0.461
		C121.353,2.839,117.24,1.984,113,1.953h-0.237h-0.238c-4.24,0.031-8.348,0.887-12.214,2.542c-0.188,0.081-0.321,0.258-0.346,0.461
		c-0.12,0.964-0.419,4.256,0.399,8.241c0.059,0.293,0.125,0.59,0.197,0.89c0.099,0.412,0.21,0.818,0.329,1.221
		c0.003,0.007,0.004,0.014,0.009,0.024c0.003,0.01,0.006,0.022,0.009,0.032c0.103,0.343,0.213,0.677,0.329,1.009
		c0.214,0.615,0.454,1.213,0.717,1.795c0.369,0.82,0.787,1.607,1.25,2.359c0.282,0.459,0.583,0.908,0.9,1.34
		c0.039,0.055,0.079,0.107,0.117,0.16c0.302,0.406,0.621,0.799,0.953,1.178c0.368,0.42,0.755,0.826,1.16,1.215
		c0.557,0.539,1.146,1.045,1.769,1.521c0.396,0.303,0.809,0.596,1.229,0.873c0.573,0.377,1.171,0.734,1.793,1.066l0.008-0.008
		l0.256-0.291l0.013-0.016l1.096-1.248l-1.015-1.213l-0.286,0.236l-0.392-0.32l1.448-1.203l-0.201,0.814l-0.287,0.24l0.999,1.141
		l1.001-1.141l-0.289-0.24l-0.201-0.814l1.448,1.203l-0.392,0.32l-0.286-0.236l-1.014,1.213l1.095,1.248l0.081,0.092l0.195,0.223
		c0.443-0.238,0.871-0.484,1.29-0.746c1.603-0.996,3.027-2.162,4.261-3.486c-0.059-0.104-0.139-0.223-0.241-0.334
		c-1.144,1.236-2.453,2.334-3.923,3.281c-0.133,0.086-0.269,0.17-0.403,0.252v0.004c0.144-0.846,0.681-3.176,2.336-4.006
		c1.856-0.934,2.533,0.492,2.533,0.492c-0.597-1.896-1.679-2.818-2.287-3.205c1.688,0.959,2.483,2.135,2.84,3.166
		c-2.015,2.355-4.577,4.25-7.638,5.641c-0.256,0.119-0.557,0.119-0.814,0c-3.492-1.59-6.338-3.834-8.458-6.67
		c-1.738-2.322-2.991-5.045-3.73-8.089c-1.076-4.442-0.735-8.224-0.604-9.275c0.043-0.346,0.268-0.645,0.588-0.782
		c3.914-1.678,8.076-2.543,12.367-2.574l0.241-0.001L113,1.548c4.298,0.031,8.461,0.896,12.378,2.574
		c0.32,0.138,0.546,0.437,0.588,0.782C126.098,5.957,126.439,9.736,125.361,14.18z M108.065,21.975
		c-0.402-0.154-0.715-0.313-0.929-0.436c0.22-0.066,5.017-1.516,8.846-0.807C115.982,20.732,112.95,20.453,108.065,21.975z
		 M115.715,21.529c0,0-1.863-0.074-4.865,1.023c-0.493,0.012-0.946-0.02-1.351-0.08C110.592,22.07,113.351,21.188,115.715,21.529z"
		/>
	<path fill="none" d="M121.41,7.386c-0.01-0.015-0.019-0.029-0.029-0.049c-0.028-0.046-0.052-0.1-0.071-0.149
		c-0.032-0.089-0.056-0.177-0.076-0.265c-0.045-0.195-0.087-0.388-0.135-0.581c-0.049-0.205-0.097-0.411-0.142-0.613
		c-0.048-0.199-0.095-0.406-0.144-0.606c-0.018-0.075-0.032-0.151-0.047-0.227c-0.01-0.062-0.016-0.128-0.014-0.184
		c0-0.034,0.006-0.069,0.014-0.094c0.006-0.018,0.017-0.041,0.028-0.053c0.003-0.003,0.006-0.004,0.006-0.005
		c0.004-0.009-0.053-0.101-0.06-0.105c-0.15-0.116-0.771-0.263-0.926-0.218c-0.011,0.005-0.061,0.072-0.062,0.078
		c-0.001,0.019,0.032,0.061,0.042,0.107c0.009,0.036,0.009,0.071,0.009,0.106c0,0.063-0.009,0.128-0.023,0.186
		c-0.013,0.048-0.026,0.103-0.039,0.149c-0.051,0.178-0.096,0.373-0.143,0.557c-0.046,0.173-0.095,0.344-0.141,0.517
		c-0.046,0.182-0.091,0.37-0.14,0.547c-0.02,0.072-0.047,0.147-0.077,0.215c-0.026,0.053-0.055,0.107-0.098,0.154
		c-0.015,0.016-0.034,0.032-0.052,0.043c-0.007,0.006-0.02,0.016-0.029,0.018c0,0.003,0,0.003,0,0.003
		c0.007,0.006,0.006,0.01,0.007,0.019c0.002,0.019,0.008,0.041,0.012,0.061c0,0,0.003,0.006,0.004,0.009
		c0.005,0.007,0.676,0.145,0.686,0.141c0.014-0.007,0.06-0.061,0.062-0.072c0-0.017-0.038-0.076-0.044-0.111
		c-0.007-0.045-0.012-0.086-0.008-0.126c0.005-0.062,0.012-0.127,0.027-0.186c0.019-0.075,0.049-0.156,0.059-0.219
		c0-0.004,0-0.01,0.004-0.012c0.151-0.034,0.542,0.123,0.813,0.191c0,0,0.006,0,0.007,0c0.002,0.003,0.002,0.014,0.004,0.018
		c0.009,0.017,0.012,0.05,0.016,0.074c0.014,0.068,0.037,0.147,0.05,0.215c0.01,0.052,0.016,0.103,0.016,0.149
		c0,0.043,0,0.087-0.009,0.127c-0.006,0.034-0.021,0.079-0.038,0.084l-0.003,0.003c0.018,0.037,0.043,0.087,0.062,0.101
		c0.004,0.004,0.014,0.006,0.023,0.007c0.212,0.054,0.419,0.108,0.627,0.165c0.005,0,0.012,0.005,0.015,0.004
		c0.003,0,0.012,0.005,0.012,0.004c0.002-0.002,0.008-0.031,0.008-0.042c0.002-0.014,0.014-0.035,0.009-0.046
		C121.466,7.451,121.43,7.417,121.41,7.386z M119.979,6.011c0-0.002,0-0.008,0-0.012c0.012-0.096,0.058-0.216,0.084-0.324
		c0.049-0.182,0.102-0.372,0.149-0.555c0.02-0.078,0.053-0.165,0.061-0.238c0-0.003,0.004-0.012,0.004-0.012l0.005,0.002
		c0,0.001,0,0.002,0,0.002c0.1,0.42,0.252,0.882,0.297,1.266c0,0.003,0.004,0.011,0.004,0.013
		C120.582,6.153,119.982,6.018,119.979,6.011z"/>
	<path fill="none" d="M120.875,14.267c-0.547-1.406-1.598-2.467-1.629-2.5c0.019,0.047,0.975,2.278-0.04,3.133
		c-1.491,1.258-3.269-0.359-6.051-2.283c-3.729-2.577-7.001-1.508-7.001-1.508c3.147-0.246,5.004,1.126,5.057,1.166
		c-2.137-1.162-3.942-0.684-3.942-0.684c2.245-0.088,3.229,1.23,3.229,1.23c-1.418-0.961-2.566-0.683-2.566-0.683
		c2.674,0.251,2.505,2.19,4.365,3.755c1.858,1.568,4.519,0.715,4.519,0.715c-0.84,0.701-2.919,0.566-2.919,0.566
		c1.621,0.311,2.715,0.098,2.715,0.098c-1.063,0.648-3.035,0.334-3.112,0.322c4.595,1.305,5.647-1.684,6.455-2.255
		c0.907-0.646,2.117,1.123,2.117,1.123c0.367-0.541,0.367-1.113,0.367-1.113C122.271,15.965,121.432,15.689,120.875,14.267z
		 M115.11,15.051c-0.001,0-0.001,0.002-0.001,0.002c0,0.002,0,0.003-0.004,0.004c-0.013,0.022-0.029,0.043-0.044,0.063
		c-0.38,0.502-1.144,0.563-1.706,0.136c-0.565-0.426-0.712-1.178-0.332-1.679c0.005-0.008,0.011-0.014,0.014-0.021
		c0.079-0.087,0.125-0.146,0.276-0.04c0,0.002,0.003,0.003,0.004,0.003c0.078,0.055,0.156,0.11,0.235,0.164l0.102,0.071l0.011,0.009
		l0.128,0.09c0.028,0.021,0.058,0.04,0.085,0.06c0.074,0.053,0.146,0.104,0.218,0.155v0.001c0,0,0,0,0.004,0
		c0,0.002,0.005,0.006,0.011,0.009c0.02,0.017,0.051,0.051,0.008,0.08c-0.098,0.068-0.241,0.062-0.352-0.022
		c-0.055-0.042-0.095-0.098-0.113-0.157c0,0-0.002,0-0.002-0.001c-0.058-0.132-0.09-0.113-0.127-0.044
		c-0.124,0.264-0.029,0.606,0.241,0.812c0.305,0.231,0.723,0.199,0.928-0.076c0.03-0.039,0.056-0.081,0.073-0.124
		c0.115,0.08,0.228,0.158,0.338,0.233c0,0,0.001,0.003,0.006,0.005C115.132,14.802,115.208,14.884,115.11,15.051z"/>
	<path fill="#FFFFFF" d="M127.167,4.757c-0.095-0.772-0.598-1.441-1.313-1.748c-4.063-1.738-8.386-2.637-12.85-2.672h-0.246h-0.248
		c-4.456,0.035-8.774,0.934-12.836,2.672c-0.714,0.307-1.216,0.976-1.313,1.746c-0.138,1.105-0.495,5.064,0.631,9.712
		c0.777,3.207,2.103,6.074,3.937,8.527c2.243,3.002,5.246,5.371,8.928,7.049c0.286,0.131,0.592,0.195,0.908,0.195
		c0.315,0,0.622-0.064,0.907-0.195c2.673-1.217,4.999-2.809,6.929-4.738c-0.025,0.232-0.059,0.369-0.06,0.369
		c-0.048,0.18,0.018,0.371,0.163,0.482c0.148,0.115,0.35,0.125,0.51,0.031c0.07-0.037,1.692-1.02,2.268-4.236
		c0.018-0.098,0.036-0.199,0.053-0.311c1.355-2.135,2.368-4.549,3.004-7.173C127.665,9.815,127.304,5.859,127.167,4.757z
		 M126.093,14.358c-0.634,2.617-1.641,5.003-2.996,7.119c-0.021,0.129-0.04,0.26-0.064,0.393c-0.547,3.047-2.05,3.924-2.05,3.924
		s0.181-0.666,0.044-1.602c-2.028,2.25-4.557,4.074-7.542,5.436c-0.227,0.104-0.471,0.152-0.72,0.152
		c-0.25,0-0.493-0.049-0.719-0.152c-3.609-1.645-6.554-3.969-8.751-6.904c-1.798-2.408-3.095-5.221-3.857-8.365
		c-1.107-4.568-0.756-8.459-0.622-9.545c0.077-0.61,0.476-1.14,1.039-1.382c4.009-1.715,8.267-2.603,12.661-2.635h0.244h0.243
		c4.4,0.032,8.664,0.92,12.67,2.635c0.565,0.24,0.964,0.771,1.04,1.382C126.848,5.897,127.2,9.79,126.093,14.358z"/>
	<path fill="#FFFFFF" d="M125.378,4.123c-3.917-1.678-8.08-2.543-12.378-2.574l-0.24-0.001l-0.241,0.001
		c-4.291,0.031-8.453,0.896-12.367,2.574c-0.32,0.138-0.545,0.437-0.588,0.782c-0.131,1.052-0.472,4.833,0.604,9.275
		c0.739,3.044,1.992,5.767,3.73,8.089c2.12,2.836,4.966,5.08,8.458,6.67c0.258,0.119,0.559,0.119,0.814,0
		c3.061-1.391,5.623-3.285,7.638-5.641c-0.356-1.031-1.151-2.207-2.84-3.166c0.608,0.387,1.69,1.309,2.287,3.205
		c0,0-0.677-1.426-2.533-0.492c-1.655,0.83-2.192,3.16-2.336,4.006v-0.004c0.135-0.082,0.271-0.166,0.403-0.252
		c1.47-0.947,2.779-2.045,3.923-3.281c0.103,0.111,0.183,0.23,0.241,0.334c-1.233,1.324-2.658,2.49-4.261,3.486
		c-0.419,0.262-0.847,0.508-1.29,0.746l-0.195-0.223l-0.081-0.092l-1.095-1.248l1.014-1.213l0.286,0.236l0.392-0.32l-1.448-1.203
		l0.201,0.814l0.289,0.24l-1.001,1.141l-0.999-1.141l0.287-0.24l0.201-0.814l-1.448,1.203l0.392,0.32l0.286-0.236l1.015,1.213
		l-1.096,1.248l-0.013,0.016l-0.256,0.291l-0.008,0.008c-0.622-0.332-1.22-0.689-1.793-1.066c-0.421-0.277-0.833-0.57-1.229-0.873
		c-0.623-0.477-1.212-0.982-1.769-1.521c-0.405-0.389-0.792-0.795-1.16-1.215c-0.332-0.379-0.651-0.771-0.953-1.178
		c-0.038-0.053-0.078-0.105-0.117-0.16c-0.317-0.432-0.618-0.881-0.9-1.34c-0.463-0.752-0.881-1.539-1.25-2.359
		c-0.263-0.582-0.503-1.18-0.717-1.795c-0.116-0.332-0.227-0.666-0.329-1.009c-0.003-0.01-0.006-0.022-0.009-0.032
		c-0.005-0.011-0.006-0.018-0.009-0.024c-0.119-0.402-0.23-0.809-0.329-1.221c-0.072-0.3-0.139-0.597-0.197-0.89
		c-0.818-3.985-0.52-7.277-0.399-8.241c0.024-0.203,0.158-0.38,0.346-0.461c3.866-1.655,7.974-2.511,12.214-2.542h0.238H113
		c4.24,0.031,8.353,0.887,12.219,2.542c0.188,0.081,0.32,0.258,0.346,0.461c0.129,1.035,0.466,4.75-0.597,9.131
		c-0.395,1.628-0.939,3.162-1.63,4.589c-0.058-0.188-0.125-0.359-0.205-0.512c0.603-1.305,1.084-2.7,1.44-4.172
		c1.046-4.313,0.715-7.969,0.59-8.987c-0.008-0.061-0.047-0.113-0.104-0.138c-3.816-1.634-7.874-2.478-12.06-2.509h-0.236h-0.238
		c-4.182,0.031-8.238,0.875-12.054,2.509c-0.056,0.024-0.097,0.077-0.104,0.138c-0.113,0.921-0.395,3.998,0.325,7.767
		c0.028,0.147,0.058,0.296,0.089,0.446c0.367-0.475,1.44-1.766,3.152-2.992c-0.702-0.147-1.243-0.493-1.243-0.493
		c1.45-0.072,2.71-0.791,2.71-0.791c-0.573-0.321-0.967-0.878-0.967-0.878c0.725,0.29,2.453,0.355,3.849,0.031
		c0.141-0.04,0.283-0.078,0.431-0.115c0-0.001,0.004-0.001,0.005-0.002c1.213-0.304,2.556-0.457,4.017-0.369
		c7.612,0.462,9.64,6.211,9.701,6.39c-1.261-3.121-6.745-6.711-12.367-5.481c-5.621,1.229-8.49,5.682-8.49,5.682
		s0.908,0.307,2.387,0.146c0,0-0.572,0.512-1.876,0.952c0,0,2.285,0.555,4.526-0.41c0,0-1.055,1.522-3.851,2.561
		c0,0,1.565,0.584,3.864,0.373c0,0-1.139,0.855-2.775,1.266c0.164-0.033,3.953-0.773,8.324-0.125c0,0-3.571,0.02-6.265,1.6
		c0,0,6.412-1.473,10.892-0.389c0,0-1.082-1.465-3.514-1.934c0,0,1.895,0.02,4.119,1.074c2.226,1.055,2.933,0.49,3.831-0.994
		c0.71-1.172,1.83-0.578,1.942,1.541c0.953-1.732,1.683-3.631,2.179-5.679c1.077-4.444,0.736-8.224,0.604-9.275
		C125.924,4.559,125.698,4.26,125.378,4.123z M111.789,27.809l0.022-0.029l0.953-1.141l0.953,1.141l0.069,0.084l0.198,0.236
		c-0.32,0.162-0.65,0.32-0.98,0.473c-0.076,0.033-0.157,0.051-0.24,0.051c-0.084,0-0.165-0.018-0.24-0.051
		c-0.188-0.088-0.376-0.174-0.559-0.264c-0.143-0.07-0.283-0.137-0.422-0.209L111.789,27.809z M106.219,6.984
		c-0.003,0.005-0.005,0.013-0.01,0.018c-0.008,0.016-0.016,0.055-0.028,0.063c-0.105,0.08-0.661,0.166-0.684,0.147
		c-0.002,0-0.005-0.008-0.005-0.011c-0.003-0.016-0.021-0.039-0.026-0.053c-0.004-0.004-0.004-0.012-0.004-0.014
		c0.004-0.016,0.023-0.038,0.035-0.057c0.055-0.089,0.069-0.185,0.055-0.276c-0.009-0.043-0.027-0.081-0.051-0.119
		c-0.247-0.385-0.5-0.879-0.763-1.159c-0.005-0.007-0.015-0.018-0.019-0.026c-0.001-0.003-0.008-0.004-0.009-0.003
		c-0.001,0.003,0,0.018,0,0.024c0,0.427,0,0.853,0,1.283c0,0.043,0,0.086,0.005,0.128c0.005,0.059,0.011,0.117,0.022,0.167
		c0.009,0.039,0.024,0.079,0.043,0.114c0.015,0.026,0.032,0.05,0.055,0.063c0.003,0.004,0.003,0.004,0.003,0.007
		c-0.004,0.027-0.023,0.083-0.038,0.096c-0.104,0.085-0.6,0.21-0.678,0.177c-0.011-0.004-0.042-0.066-0.037-0.08
		c0-0.009,0.026-0.034,0.037-0.052c0.016-0.028,0.026-0.059,0.035-0.085c0.027-0.078,0.043-0.165,0.05-0.245
		c0.004-0.045,0.004-0.093,0.004-0.14c0-0.588,0-1.174,0-1.761c0-0.043,0-0.082-0.004-0.123c-0.005-0.053-0.011-0.108-0.023-0.155
		c-0.012-0.039-0.025-0.079-0.046-0.118c-0.013-0.02-0.035-0.052-0.049-0.055c-0.004,0-0.004-0.003-0.004-0.003
		c0-0.005,0.002-0.015,0.004-0.018c0.003-0.019,0.017-0.048,0.026-0.064c0.002-0.005,0.003-0.015,0.007-0.019
		c0.146-0.098,0.615-0.226,0.755-0.195c0.003,0,0.006,0.011,0.009,0.014c0.007,0.011,0.017,0.044,0.024,0.055
		c0.004,0.004,0.005,0.009,0.005,0.012c-0.005,0.017-0.02,0.04-0.022,0.062c-0.006,0.027-0.002,0.058,0,0.077
		c0.005,0.04,0.016,0.08,0.027,0.11c0.021,0.058,0.049,0.106,0.08,0.153c0.16,0.242,0.324,0.487,0.484,0.73
		c0.03,0.047,0.061,0.113,0.092,0.148c0.004,0.001,0.011,0.006,0.011,0.005c0.004-0.004,0-0.017,0-0.024c0-0.3,0-0.603,0-0.904
		c0-0.037,0-0.084-0.002-0.124c-0.005-0.06-0.011-0.12-0.024-0.174c-0.01-0.04-0.024-0.086-0.047-0.122
		c-0.012-0.022-0.029-0.048-0.053-0.063c0-0.001,0-0.003,0-0.004c0.011-0.034,0.023-0.084,0.039-0.099
		c0.099-0.082,0.557-0.178,0.68-0.146c0.004,0,0.006,0.008,0.006,0.01c0.005,0.015,0.016,0.037,0.022,0.047
		c0.005,0.003,0.009,0.011,0.01,0.014c0.001,0.002,0.001,0.014,0,0.015c-0.01,0.034-0.05,0.084-0.066,0.12
		c-0.008,0.013-0.013,0.031-0.015,0.046c-0.024,0.082-0.042,0.172-0.043,0.252c-0.004,0.033,0,0.069,0,0.104
		c0,0.582,0,1.164,0,1.745c0,0.047,0,0.094,0.003,0.137c0.005,0.052,0.011,0.104,0.023,0.151c0.011,0.039,0.021,0.085,0.042,0.116
		c0.014,0.019,0.034,0.054,0.046,0.058c0.003,0,0.009,0,0.01,0.003C106.22,6.966,106.22,6.98,106.219,6.984z M106.766,6.974
		c-0.154,0.028-0.276-0.078-0.275-0.225c0.002-0.164,0.142-0.305,0.28-0.331c0.145-0.026,0.277,0.072,0.277,0.228
		C107.048,6.791,106.935,6.945,106.766,6.974z M109.397,4.158c-0.003,0.027-0.005,0.075-0.012,0.089
		c-0.008,0.009-0.646,0.286-0.66,0.286c-0.014-0.005-0.057-0.043-0.063-0.063c-0.003-0.003,0.002-0.009,0.002-0.013
		c0.006-0.02,0.02-0.05,0.024-0.077c0.006-0.026,0.007-0.027-0.012-0.049c-0.058-0.066-0.138-0.112-0.231-0.126
		c-0.022-0.004-0.053-0.003-0.072-0.002c-0.061,0.003-0.124,0.019-0.181,0.04c-0.047,0.018-0.095,0.043-0.139,0.074
		c-0.064,0.049-0.115,0.12-0.133,0.2c-0.009,0.04-0.014,0.085-0.003,0.121c0.009,0.036,0.027,0.066,0.051,0.09
		c0.026,0.027,0.054,0.053,0.085,0.071c0.047,0.024,0.097,0.049,0.146,0.067c0.077,0.03,0.157,0.058,0.236,0.083
		c0.089,0.03,0.18,0.062,0.266,0.098c0.086,0.037,0.166,0.073,0.242,0.122c0.076,0.047,0.144,0.103,0.2,0.169
		c0.067,0.075,0.117,0.168,0.143,0.265c0.021,0.072,0.028,0.152,0.023,0.231c-0.003,0.073-0.015,0.151-0.04,0.226
		c-0.068,0.22-0.212,0.391-0.415,0.51c-0.075,0.042-0.148,0.078-0.224,0.103c-0.065,0.02-0.136,0.039-0.205,0.05
		c-0.026,0.005-0.058,0.006-0.085,0.012c-0.123,0.016-0.242,0.012-0.354-0.021c-0.092-0.026-0.184-0.07-0.261-0.124
		c-0.056-0.039-0.103-0.079-0.149-0.125c-0.023-0.023-0.048-0.041-0.073-0.055c-0.054-0.026-0.123-0.054-0.173-0.054
		c-0.003,0-0.012-0.002-0.012-0.002c-0.005-0.006,0.003-0.084,0.012-0.096c0.006-0.012,0.645-0.319,0.651-0.319
		c0.01,0.003,0.069,0.058,0.069,0.065c0,0.015-0.028,0.056-0.029,0.083c0,0.003-0.001,0.012-0.004,0.016
		c-0.003,0.009,0.002,0.023,0.009,0.035c0.037,0.05,0.082,0.09,0.146,0.109c0.045,0.018,0.098,0.022,0.147,0.021
		c0.061-0.005,0.12-0.017,0.177-0.033c0.051-0.012,0.1-0.033,0.141-0.06c0.034-0.021,0.068-0.044,0.095-0.076
		c0.036-0.04,0.054-0.094,0.063-0.143c0.005-0.039,0.009-0.079,0.002-0.114c-0.003-0.037-0.019-0.072-0.037-0.104
		c-0.021-0.033-0.05-0.061-0.079-0.085c-0.042-0.034-0.095-0.062-0.146-0.088c-0.061-0.03-0.129-0.058-0.198-0.081
		c-0.083-0.028-0.168-0.061-0.247-0.089c-0.083-0.026-0.171-0.056-0.246-0.092c-0.07-0.032-0.137-0.072-0.2-0.121
		c-0.059-0.047-0.112-0.102-0.152-0.163c-0.041-0.064-0.073-0.139-0.083-0.219c-0.004-0.04-0.006-0.085-0.002-0.13
		c0.005-0.07,0.014-0.15,0.033-0.222c0.065-0.229,0.213-0.41,0.416-0.54c0.077-0.05,0.156-0.085,0.238-0.112
		c0.098-0.034,0.201-0.054,0.299-0.064c0.074-0.007,0.156,0,0.229,0.012c0.082,0.015,0.161,0.038,0.228,0.073
		c0.071,0.037,0.146,0.078,0.204,0.129c0.024,0.021,0.053,0.045,0.076,0.07c0.03,0.035,0.071,0.063,0.113,0.081
		c0.043,0.021,0.109,0.033,0.142,0.047c0.003,0.004,0.012,0.004,0.012,0.005C109.397,4.148,109.397,4.156,109.397,4.158z
		 M111.148,4.18c-0.017-0.04-0.048-0.075-0.085-0.095c-0.063-0.036-0.137-0.059-0.208-0.069c-0.056-0.007-0.117-0.005-0.171,0.004
		c-0.098,0.017-0.188,0.056-0.268,0.115c-0.138,0.102-0.227,0.236-0.261,0.404c-0.007,0.038-0.011,0.079-0.011,0.116
		c0,0.26-0.004,0.524,0,0.78c0.001,0.254,0.165,0.463,0.385,0.53c0.075,0.022,0.154,0.031,0.233,0.024
		c0.104-0.012,0.201-0.043,0.291-0.101c0.059-0.036,0.091-0.094,0.106-0.157c0.008-0.043,0-0.103,0.005-0.129
		c0.001-0.009,0.044-0.061,0.063-0.072c0.005-0.005,0.012,0,0.021,0.002c0.1,0.035,0.228,0.063,0.337,0.095
		c0.096,0.029,0.22,0.043,0.284,0.083c0.004,0,0.016,0.001,0.017,0.006c0.005,0.008,0.006,0.095,0.005,0.098
		c-0.001,0-0.009,0.004-0.009,0.004c-0.091,0.038-0.165,0.104-0.226,0.172c-0.011,0.013-0.019,0.024-0.028,0.036
		c-0.147,0.206-0.365,0.353-0.623,0.429c-0.063,0.021-0.124,0.031-0.188,0.039c-0.06,0.009-0.115,0.009-0.169,0.009
		c-0.138-0.009-0.28-0.032-0.405-0.086c-0.275-0.122-0.49-0.355-0.569-0.651c-0.018-0.059-0.029-0.114-0.036-0.176
		c-0.005-0.039-0.005-0.078-0.005-0.121c0-0.251,0-0.505,0-0.76c0-0.054,0.005-0.11,0.012-0.169c0.02-0.134,0.061-0.268,0.131-0.394
		c0.146-0.269,0.374-0.46,0.646-0.569c0.063-0.026,0.126-0.045,0.189-0.058c0.069-0.013,0.138-0.016,0.207-0.016
		c0.17,0,0.335,0.038,0.482,0.114c0.128,0.067,0.243,0.174,0.334,0.283c0.025,0.031,0.055,0.063,0.086,0.088
		c0.052,0.042,0.113,0.088,0.163,0.097c0.004,0,0.006,0,0.009,0.003c0.005,0.011,0.001,0.091,0,0.095
		c-0.005,0.006-0.633,0.243-0.66,0.24c-0.007-0.001-0.063-0.053-0.065-0.067c-0.004-0.01,0.003-0.029,0.003-0.04
		C111.17,4.272,111.166,4.22,111.148,4.18z M114.226,3.601c-0.004,0.012-0.022,0.026-0.031,0.039
		c-0.018,0.023-0.035,0.058-0.047,0.091c-0.016,0.045-0.028,0.093-0.034,0.139C114.1,3.94,114.1,4.011,114.1,4.085
		c0,0.473,0,0.95,0,1.424c0,0.038-0.004,0.077-0.007,0.117c-0.01,0.081-0.027,0.157-0.06,0.236c-0.111,0.274-0.355,0.48-0.646,0.556
		c-0.056,0.014-0.111,0.026-0.167,0.027c-0.049,0.005-0.095,0.005-0.141,0c-0.142-0.013-0.283-0.049-0.407-0.119
		c-0.229-0.126-0.383-0.321-0.458-0.57c-0.019-0.063-0.027-0.129-0.032-0.188c-0.001-0.028-0.004-0.057-0.004-0.089
		c0-0.469,0-0.935,0-1.404c0-0.051,0-0.1-0.003-0.148c-0.008-0.077-0.021-0.156-0.051-0.233c0,0,0-0.001,0-0.004
		c-0.007-0.037-0.071-0.095-0.076-0.117c-0.001-0.004,0.029-0.078,0.04-0.087c0.009-0.005,0.687-0.013,0.694-0.005
		c0.013,0.009,0.027,0.053,0.039,0.085c-0.002,0-0.002,0.002-0.003,0.003c-0.02,0.021-0.037,0.045-0.051,0.068
		c-0.021,0.034-0.034,0.078-0.045,0.116c-0.013,0.045-0.018,0.092-0.024,0.137c-0.005,0.053-0.006,0.11-0.006,0.161
		c0,0.481,0,0.962,0,1.438c0,0.051,0.006,0.098,0.023,0.146c0.052,0.151,0.183,0.264,0.335,0.294
		c0.239,0.048,0.468-0.098,0.524-0.326c0.008-0.033,0.01-0.07,0.012-0.103c0.001-0.022,0-0.052,0-0.079c0-0.45,0-0.899,0-1.346
		c0-0.06-0.002-0.114-0.007-0.168c-0.007-0.069-0.037-0.147-0.047-0.204c-0.003-0.006-0.003-0.013-0.005-0.017
		c-0.021-0.029-0.072-0.096-0.075-0.114c-0.004-0.013,0.026-0.066,0.038-0.085c0.004-0.004,0.011-0.004,0.014-0.004
		c0.016,0,0.029,0.002,0.043,0.002c0.204,0.003,0.411,0.012,0.615,0.019c0.009,0,0.021,0,0.022,0.002
		c0.004,0.001,0.009,0.009,0.009,0.013c0.004,0.019,0.019,0.043,0.027,0.065c0.002,0,0.002,0,0.004,0
		C114.226,3.595,114.229,3.6,114.226,3.601z M117.016,5.47c0,0.176-0.036,0.34-0.102,0.49c-0.152,0.342-0.473,0.568-0.842,0.633
		c-0.065,0.01-0.132,0.021-0.195,0.019c-0.064,0-0.134-0.003-0.202-0.014c-0.322-0.047-0.601-0.188-0.83-0.427
		c-0.161-0.167-0.273-0.368-0.335-0.59c-0.018-0.067-0.025-0.141-0.035-0.201c-0.004-0.014,0-0.039-0.004-0.051
		c-0.002-0.006-0.007-0.021-0.007-0.028c-0.038-0.161-0.053-0.53,0-0.648c0.002-0.006,0.007-0.02,0.007-0.029
		c0.003-0.062,0.011-0.128,0.022-0.187c0.049-0.225,0.168-0.428,0.333-0.59c0.151-0.146,0.334-0.247,0.547-0.292
		c0.066-0.016,0.138-0.022,0.208-0.026c0.027,0,0.051-0.004,0.078,0c0.004,0,0.013-0.004,0.016-0.004
		c0.045,0.004,0.089,0.008,0.131,0.013c0.004,0,0.012,0.005,0.017,0.005c0.037,0.004,0.075,0.013,0.11,0.022
		c0.07,0.02,0.152,0.044,0.223,0.076c0.388,0.181,0.704,0.539,0.813,0.954c0.015,0.061,0.026,0.125,0.034,0.188
		c0.009,0.055,0.013,0.107,0.013,0.162C117.016,5.121,117.016,5.297,117.016,5.47z M118.864,6.379
		c-0.015,0.118-0.072,0.262-0.108,0.387c-0.017,0.057-0.034,0.16-0.049,0.168c-0.13,0.083-1.246-0.089-1.418-0.229
		c-0.014-0.009-0.04-0.078-0.038-0.091c0-0.005,0.019-0.018,0.022-0.023c0.014-0.017,0.032-0.038,0.044-0.062
		c0.019-0.039,0.031-0.08,0.038-0.123c0.016-0.069,0.025-0.143,0.025-0.215c0-0.023,0-0.05,0-0.075c0-0.578-0.001-1.156,0-1.732
		c0-0.027,0-0.057,0-0.081c-0.003-0.082-0.015-0.168-0.035-0.252c-0.005-0.015-0.011-0.031-0.017-0.045
		c-0.016-0.044-0.063-0.1-0.074-0.131c0-0.003,0.002-0.009,0.003-0.013c0.011-0.012,0.024-0.044,0.028-0.058
		c0.001-0.003,0.003-0.015,0.003-0.015c0.009-0.008,0.035-0.012,0.073-0.012c0.14-0.001,0.438,0.04,0.567,0.088
		c0.024,0.009,0.042,0.019,0.053,0.025c0.014,0.012,0.04,0.097,0.04,0.097c-0.001,0.001-0.004,0.003-0.004,0.003
		c-0.024,0.016-0.041,0.041-0.055,0.064c-0.019,0.035-0.035,0.084-0.045,0.124c-0.012,0.053-0.021,0.112-0.021,0.167
		c-0.004,0.042-0.005,0.087-0.005,0.134c0,0.593,0,1.186,0,1.778c0,0.009-0.001,0.026,0,0.029c0.001,0,0.007,0,0.013,0.001
		c0,0,0,0,0.003,0.001c0.136,0.021,0.274,0.044,0.409,0.065c0.091,0.016,0.18,0.022,0.266,0.016c0.042-0.003,0.088-0.012,0.13-0.023
		c0.021-0.006,0.05-0.018,0.074-0.035c0,0,0-0.002,0.005-0.001c0.019,0.008,0.073,0.046,0.076,0.053
		C118.869,6.369,118.865,6.376,118.864,6.379z M121.472,7.52c0,0.011-0.006,0.04-0.008,0.042c0,0.001-0.009-0.004-0.012-0.004
		c-0.003,0.001-0.01-0.004-0.015-0.004c-0.208-0.057-0.415-0.111-0.627-0.165c-0.01-0.001-0.02-0.003-0.023-0.007
		c-0.019-0.014-0.044-0.063-0.062-0.101l0.003-0.003c0.018-0.005,0.032-0.05,0.038-0.084c0.009-0.04,0.009-0.084,0.009-0.127
		c0-0.047-0.006-0.098-0.016-0.149c-0.013-0.067-0.036-0.146-0.05-0.215c-0.004-0.024-0.007-0.058-0.016-0.074
		c-0.002-0.004-0.002-0.015-0.004-0.018c-0.001,0-0.007,0-0.007,0c-0.271-0.068-0.661-0.226-0.813-0.191
		c-0.004,0.002-0.004,0.008-0.004,0.012c-0.01,0.063-0.04,0.144-0.059,0.219c-0.016,0.059-0.022,0.124-0.027,0.186
		c-0.004,0.04,0.001,0.081,0.008,0.126c0.006,0.035,0.044,0.095,0.044,0.111c-0.002,0.012-0.048,0.065-0.062,0.072
		c-0.01,0.004-0.681-0.134-0.686-0.141c-0.001-0.003-0.004-0.009-0.004-0.009c-0.004-0.02-0.01-0.042-0.012-0.061
		c-0.001-0.009,0-0.013-0.007-0.019c0,0,0,0,0-0.003c0.01-0.002,0.022-0.012,0.029-0.018c0.018-0.011,0.037-0.027,0.052-0.043
		c0.043-0.047,0.071-0.102,0.098-0.154c0.03-0.067,0.058-0.143,0.077-0.215c0.049-0.177,0.094-0.365,0.14-0.547
		c0.046-0.173,0.095-0.344,0.141-0.517c0.047-0.184,0.092-0.379,0.143-0.557c0.013-0.047,0.026-0.102,0.039-0.149
		c0.015-0.058,0.023-0.123,0.023-0.186c0-0.035,0-0.07-0.009-0.106c-0.01-0.047-0.043-0.089-0.042-0.107
		c0.001-0.006,0.051-0.073,0.062-0.078c0.154-0.045,0.775,0.102,0.926,0.218c0.007,0.005,0.063,0.097,0.06,0.105
		c0,0.001-0.003,0.002-0.006,0.005c-0.012,0.012-0.022,0.035-0.028,0.053c-0.008,0.024-0.014,0.06-0.014,0.094
		c-0.002,0.056,0.004,0.122,0.014,0.184c0.015,0.075,0.029,0.151,0.047,0.227c0.049,0.2,0.096,0.407,0.144,0.606
		c0.045,0.202,0.093,0.408,0.142,0.613c0.048,0.193,0.09,0.386,0.135,0.581c0.021,0.088,0.044,0.176,0.076,0.265
		c0.02,0.05,0.043,0.104,0.071,0.149c0.011,0.02,0.02,0.034,0.029,0.049c0.02,0.03,0.056,0.064,0.07,0.088
		C121.485,7.485,121.474,7.506,121.472,7.52z M122.07,16.463c0,0-1.21-1.768-2.117-1.123c-0.808,0.572-1.86,3.56-6.455,2.255
		c0.077,0.012,2.049,0.326,3.112-0.322c0,0-1.094,0.213-2.715-0.098c0,0,2.079,0.135,2.919-0.566c0,0-2.66,0.854-4.519-0.715
		c-1.86-1.565-1.691-3.504-4.365-3.755c0,0,1.148-0.278,2.566,0.683c0,0-0.983-1.318-3.229-1.23c0,0,1.806-0.479,3.942,0.684
		c-0.053-0.04-1.909-1.412-5.057-1.166c0,0,3.271-1.069,7.001,1.508c2.782,1.924,4.56,3.542,6.051,2.283
		c1.015-0.854,0.059-3.086,0.04-3.133c0.031,0.033,1.082,1.094,1.629,2.5c0.557,1.422,1.396,1.698,1.563,1.083
		C122.438,15.35,122.438,15.922,122.07,16.463z"/>
	<path fill="#FFFFFF" d="M120.281,4.875c0,0,0-0.001,0-0.002l-0.005-0.002c0,0-0.004,0.009-0.004,0.012
		c-0.008,0.073-0.041,0.16-0.061,0.238c-0.048,0.183-0.101,0.373-0.149,0.555c-0.026,0.108-0.072,0.229-0.084,0.324
		c0,0.004,0,0.01,0,0.012c0.004,0.007,0.604,0.142,0.604,0.142c0-0.002-0.004-0.01-0.004-0.013
		C120.533,5.756,120.381,5.294,120.281,4.875z"/>
	<path fill="#FFFFFF" d="M115.11,14.784c-0.005-0.002-0.006-0.005-0.006-0.005c-0.11-0.075-0.223-0.153-0.338-0.233
		c-0.018,0.043-0.043,0.085-0.073,0.124c-0.205,0.275-0.623,0.308-0.928,0.076c-0.271-0.205-0.365-0.548-0.241-0.812
		c0.037-0.069,0.069-0.088,0.127,0.044c0,0.001,0.002,0.001,0.002,0.001c0.019,0.06,0.059,0.115,0.113,0.157
		c0.11,0.084,0.254,0.091,0.352,0.022c0.043-0.029,0.012-0.063-0.008-0.08c-0.006-0.003-0.011-0.007-0.011-0.009
		c-0.004,0-0.004,0-0.004,0v-0.001c-0.072-0.051-0.144-0.103-0.218-0.155c-0.027-0.02-0.057-0.038-0.085-0.06l-0.128-0.09
		l-0.011-0.009l-0.102-0.071c-0.079-0.054-0.157-0.109-0.235-0.164c-0.001,0-0.004-0.001-0.004-0.003
		c-0.151-0.106-0.197-0.047-0.276,0.04c-0.003,0.007-0.009,0.013-0.014,0.021c-0.38,0.501-0.233,1.253,0.332,1.679
		c0.563,0.427,1.326,0.367,1.706-0.136c0.015-0.021,0.031-0.041,0.044-0.063c0.004-0.001,0.004-0.002,0.004-0.004
		c0,0,0-0.002,0.001-0.002C115.208,14.884,115.132,14.802,115.11,14.784z"/>
	<path fill="#FFFFFF" d="M109.499,22.473c0.404,0.061,0.857,0.092,1.351,0.08c3.002-1.098,4.865-1.023,4.865-1.023
		C113.351,21.188,110.592,22.07,109.499,22.473z"/>
	<path fill="#FFFFFF" d="M107.137,21.539c0.214,0.123,0.526,0.281,0.929,0.436c4.885-1.521,7.917-1.242,7.917-1.242
		C112.153,20.023,107.356,21.473,107.137,21.539z"/>
	<path fill="#FFFFFF" d="M115.793,4.047c-0.067-0.014-0.143-0.014-0.212-0.002c-0.203,0.027-0.368,0.126-0.483,0.298
		c-0.076,0.112-0.119,0.241-0.119,0.38c-0.001,0.093,0,0.19,0,0.285c0,0.09,0,0.179,0,0.271c0,0.045,0.006,0.098,0.016,0.145
		c0.036,0.157,0.106,0.303,0.225,0.423c0.143,0.143,0.308,0.223,0.501,0.248c0.073,0.009,0.145,0.009,0.22-0.003
		c0.33-0.057,0.562-0.328,0.562-0.677c0-0.18,0-0.358,0-0.54c0-0.063-0.007-0.122-0.019-0.182
		C116.412,4.384,116.132,4.109,115.793,4.047z"/>
</g>
</svg>
